<?xml version="1.0" standalone="no"?>
<!DOCTYPE svg PUBLIC "-//W3C//DTD SVG 20010904//EN"
 "http://www.w3.org/TR/2001/REC-SVG-20010904/DTD/svg10.dtd">
<svg version="1.0" xmlns="http://www.w3.org/2000/svg"
 width="200.000000pt" height="200.000000pt" viewBox="0 0 200.000000 200.000000"
 preserveAspectRatio="xMidYMid meet">

<g transform="translate(0.000000,200.000000) scale(0.100000,-0.100000)"
fill="#000000" stroke="none">
<path d="M108 684 c-12 -11 -10 -234 2 -234 6 0 10 17 10 39 0 21 6 44 14 51
12 9 19 3 41 -39 14 -28 28 -51 30 -51 6 0 -15 52 -38 96 -15 28 -14 31 15 82
39 69 28 67 -14 -3 -18 -30 -36 -55 -40 -55 -4 0 -8 27 -10 61 -2 33 -6 57
-10 53z"/>
<path d="M260 568 c0 -65 3 -118 8 -118 4 0 6 49 5 110 -2 109 -2 110 22 116
13 3 29 3 36 -2 8 -4 9 -3 5 5 -4 6 -23 10 -42 9 l-34 -2 0 -118z"/>
<path d="M720 667 c0 -15 4 -27 9 -27 5 0 13 -9 16 -21 4 -11 9 -19 11 -16 5
5 -16 69 -27 82 -5 5 -9 -2 -9 -18z"/>
<path d="M1211 643 c1 -39 2 -43 9 -23 4 14 8 19 9 11 1 -8 4 -12 7 -8 9 8 -6
67 -17 67 -5 0 -9 -21 -8 -47z"/>
<path d="M1330 676 c0 -8 -3 -22 -7 -32 -4 -11 -3 -15 5 -10 14 8 25 -64 21
-133 -2 -28 -1 -51 4 -51 4 0 7 51 7 114 0 92 -3 115 -15 120 -9 3 -15 0 -15
-8z"/>
<path d="M1550 667 c0 -15 4 -27 9 -27 5 0 11 -6 14 -12 2 -7 2 1 -1 17 -6 41
-22 57 -22 22z"/>
<path d="M1743 683 c-7 -3 -13 -14 -13 -26 0 -16 3 -18 9 -8 5 7 11 9 14 5 8
-14 20 -76 22 -117 1 -21 5 -40 9 -44 3 -3 6 -15 6 -25 0 -10 4 -18 9 -18 4 0
5 17 0 38 -36 169 -45 199 -56 195z"/>
<path d="M391 568 c0 -65 2 -118 7 -118 4 0 6 42 4 92 -4 144 -9 155 -11 26z"/>
<path d="M501 675 c-1 -5 9 -58 20 -117 15 -74 26 -108 35 -108 17 0 19 17 3
22 -6 2 -19 46 -30 98 -20 97 -27 123 -28 105z"/>
<path d="M598 651 c-2 -17 -1 -28 3 -26 10 7 18 55 9 55 -4 0 -10 -13 -12 -29z"/>
<path d="M664 565 c0 -66 1 -92 3 -57 2 34 2 88 0 120 -2 31 -3 3 -3 -63z"/>
<path d="M920 677 c0 -2 11 -37 25 -77 14 -40 25 -91 25 -113 0 -58 6 -42 13
32 3 36 2 59 -3 52 -9 -16 -13 -10 -34 57 -15 43 -26 65 -26 49z"/>
<path d="M1017 673 c-4 -3 -7 -13 -7 -22 1 -13 3 -13 11 2 11 19 8 33 -4 20z"/>
<path d="M1070 661 c-5 -11 -10 -54 -10 -96 0 -75 11 -115 31 -115 6 0 3 7 -5
16 -23 23 -23 170 1 196 9 10 11 18 5 18 -6 0 -16 -9 -22 -19z"/>
<path d="M1133 669 c25 -15 25 -183 0 -212 -17 -19 -17 -20 4 -8 28 14 37 61
30 148 -5 62 -16 83 -42 83 -5 -1 -2 -5 8 -11z"/>
<path d="M1412 668 c-8 -8 -12 -47 -12 -110 0 -91 2 -98 23 -109 21 -12 21
-11 5 8 -14 16 -18 38 -18 111 0 76 3 93 18 101 9 6 12 11 7 11 -6 0 -16 -5
-23 -12z"/>
<path d="M1473 662 c23 -26 24 -167 1 -202 l-16 -25 21 24 c36 40 27 221 -11
221 -6 0 -4 -8 5 -18z"/>
<path d="M997 611 c-4 -17 -3 -21 5 -13 5 5 8 16 6 23 -3 8 -7 3 -11 -10z"/>
<path d="M761 580 c0 -8 4 -22 9 -30 12 -18 12 -2 0 25 -6 13 -9 15 -9 5z"/>
<path d="M1591 580 c0 -8 4 -22 9 -30 12 -18 12 -2 0 25 -6 13 -9 15 -9 5z"/>
<path d="M583 565 c-3 -9 -3 -18 -1 -21 3 -3 8 4 11 16 6 23 -1 27 -10 5z"/>
<path d="M780 524 c0 -15 24 -74 31 -74 10 0 -3 54 -18 68 -7 7 -13 10 -13 6z"/>
<path d="M1610 522 c0 -18 22 -72 30 -72 11 0 -1 53 -17 68 -7 7 -13 9 -13 4z"/>
<path d="M1700 503 c0 -12 -3 -30 -6 -40 -3 -10 2 -5 11 11 12 20 14 31 6 39
-8 8 -11 5 -11 -10z"/>
<path d="M1270 470 c0 -11 5 -20 10 -20 6 0 10 9 10 20 0 11 -4 20 -10 20 -5
0 -10 -9 -10 -20z"/>
</g>
</svg>
